<svg xmlns="http://www.w3.org/2000/svg" viewBox="0 0 100.353 100.353"><path d="M13.08 46.799a1.5 1.5 0 0 0 .987-2.63L3.125 34.615a1.501 1.501 0 0 0-1.974 2.26l10.942 9.554c.285.248.636.37.987.37zm10.105-9.516a1.5 1.5 0 1 0 2.703-1.301l-6.298-13.09a1.501 1.501 0 0 0-2.002-.701 1.499 1.499 0 0 0-.701 2.002l6.298 13.09z"/><path d="M99.168 87.347V27.179c0-.018-.006-.035-.006-.053a1.607 1.607 0 0 0-.027-.229c-.006-.033-.011-.066-.019-.099a1.528 1.528 0 0 0-.087-.236c-.01-.021-.013-.044-.024-.065a.821.821 0 0 0-.015-.028l-.001-.002-.004-.008c-.507-.978-8.687-16.032-30.561-16.032-23.337 0-30.37 15.492-30.657 16.152a1.494 1.494 0 0 0-.125.6v9.825C23.06 38.709 12.638 53.717 12.176 54.393a1.5 1.5 0 0 0 0 1.691c.462.676 10.884 15.684 25.466 17.389V88.07a1.5 1.5 0 0 0 1.5 1.5h58.722a1.5 1.5 0 0 0 1.5-1.5 1.506 1.506 0 0 0-.196-.723zm-8.135-64.363c2.599.748 4.557 3.661 5.135 4.605v58.275l-18.407-7.297V37.972c.183-1.032 1.995-10.124 9.794-14.505 1.176-.661 2.315-.819 3.478-.483zM15.274 55.24c2.452-3.219 11.878-14.53 23.7-15.348.055.006.109.017.166.017.118 0 .232-.017.342-.043.278-.012.556-.025.836-.025 11.18.001 20.67 12.102 23.047 15.399-2.377 3.297-11.867 15.398-23.047 15.398-12.447 0-22.5-12.059-25.044-15.398zM40.64 73.626c14.352-.247 25.347-16.855 25.811-17.568a1.503 1.503 0 0 0 0-1.639c-.464-.711-11.459-17.319-25.811-17.567v-9.336c1.007-2.024 7.85-14.089 27.783-14.089 9.57 0 16.26 3.1 20.689 6.429-1.019.109-2.031.437-3.026.996-9.545 5.36-11.242 16.316-11.31 16.78a1.428 1.428 0 0 0-.016.216v41.736a1.5 1.5 0 0 0 .947 1.395l14.106 5.592H40.64V73.626z"/><path d="M82.149 51.708a1.5 1.5 0 0 0-1.5 1.5v4.373a1.5 1.5 0 0 0 3 0v-4.373a1.5 1.5 0 0 0-1.5-1.5zm-32.385 3.533c0-6.03-4.693-10.935-10.461-10.935-5.768 0-10.461 4.905-10.461 10.935s4.693 10.936 10.461 10.936c5.768-.001 10.461-4.906 10.461-10.936zm-10.461 7.935c-4.114 0-7.461-3.56-7.461-7.936 0-4.375 3.347-7.935 7.461-7.935 4.114 0 7.461 3.56 7.461 7.935 0 4.376-3.347 7.936-7.461 7.936z"/></svg>