<svg xmlns="http://www.w3.org/2000/svg" viewBox="0 0 100.75 100.749"><path d="M75.651 9.501H42.317c-.472 0-.917.222-1.2.6L21.122 36.772a1.5 1.5 0 0 0-.3.9v27.224a1.5 1.5 0 0 0 1.5 1.5c24.817 0 25.163 23.6 25.165 24.604a1.501 1.501 0 0 0 1.5 1.498h26.665a1.5 1.5 0 0 0 1.5-1.5V11.001a1.501 1.501 0 0 0-1.501-1.5zm-1.5 79.997H50.398c-.507-5.636-3.906-25.246-26.577-26.075V38.172l19.245-25.671H74.15v76.997z"/><path d="M30.049 38.163a1.5 1.5 0 0 0 1.343.833h37.216a1.5 1.5 0 0 0 1.5-1.5v-19.36a1.5 1.5 0 0 0-1.5-1.5h-22.55c-.47 0-.912.22-1.196.594L30.196 36.589a1.502 1.502 0 0 0-.147 1.574zm16.755-18.527h20.305v16.359H34.41l12.394-16.359zm21.804 25.01h-8.884a1.5 1.5 0 1 0 0 3h8.884a1.5 1.5 0 1 0 0-3z"/></svg>