<svg xmlns="http://www.w3.org/2000/svg" viewBox="0 0 100.75 100.749"><path d="M79.24 57.726a1.467 1.467 0 0 0-.09-.25l-9.057-18.934a1.502 1.502 0 0 0-1.354-.853H31.173c-.58 0-1.107.334-1.355.858l-8.97 18.934c-.004.007-.005.015-.008.023-4.632 1.196-8.07 5.397-8.07 10.398v6.664c0 4.872 3.26 8.991 7.712 10.306v9.646c0 1.815 1.688 3.293 3.763 3.293h4.694c2.075 0 3.763-1.478 3.763-3.293v-9.202h34.596v9.202c0 1.815 1.688 3.293 3.763 3.293h4.694c2.075 0 3.763-1.478 3.763-3.293V84.64c4.099-1.517 7.033-5.454 7.033-10.074v-6.664c0-4.724-3.067-8.737-7.311-10.176zM32.122 40.689h35.673l7.874 16.462H24.323l7.799-16.462zm-2.418 53.814c-.03.088-.303.308-.765.308h-4.694c-.462 0-.734-.221-.763-.293v-9.204l.038.002h6.182l.002 9.187zm46.816 0c-.03.088-.303.308-.765.308h-4.694c-.462 0-.734-.221-.763-.293v-9.202h5.503c.242 0 .479-.021.717-.036l.002 9.223zm7.031-19.938c0 4.273-3.477 7.75-7.75 7.75H23.52c-4.273 0-7.75-3.477-7.75-7.75v-6.664c0-4.273 3.477-7.75 7.75-7.75h52.281c4.273 0 7.75 3.477 7.75 7.75v6.664z"/><path d="M26.592 65.344a5.896 5.896 0 0 0-5.889 5.89c0 3.247 2.642 5.889 5.889 5.889s5.889-2.642 5.889-5.889a5.896 5.896 0 0 0-5.889-5.89zm0 8.778a2.892 2.892 0 0 1-2.889-2.889 2.892 2.892 0 0 1 2.889-2.89 2.892 2.892 0 0 1 2.889 2.89 2.892 2.892 0 0 1-2.889 2.889zm46.816-9.15a5.896 5.896 0 0 0-5.89 5.89 5.896 5.896 0 0 0 5.89 5.889 5.896 5.896 0 0 0 5.889-5.889 5.896 5.896 0 0 0-5.889-5.89zm0 8.778a2.892 2.892 0 0 1-2.89-2.889 2.893 2.893 0 0 1 2.89-2.89 2.892 2.892 0 0 1 2.889 2.89 2.892 2.892 0 0 1-2.889 2.889zm-16.957-1.477H42.869a1.5 1.5 0 1 0 0 3h13.582a1.5 1.5 0 0 0 0-3zM17.137 18.356a1.5 1.5 0 0 0-1.314 2.222 11.12 11.12 0 0 0 9.742 5.767c4.41 0 8.354-2.594 10.132-6.558h43.731a4.564 4.564 0 0 0 4.558-4.558 4.562 4.562 0 0 0-4.557-4.556H35.697a11.1 11.1 0 0 0-10.132-6.558 11.117 11.117 0 0 0-9.742 5.766 1.5 1.5 0 0 0 1.314 2.222h5.975l1.805 3.126-1.805 3.126h-5.975zm8.14 2.25l2.671-4.626a1.5 1.5 0 0 0 0-1.5l-2.671-4.626a1.5 1.5 0 0 0-1.299-.75h-3.732a8.108 8.108 0 0 1 13.007 3.546 1.5 1.5 0 0 0 1.422 1.023H79.43c.858 0 1.557.698 1.557 1.555a1.56 1.56 0 0 1-1.558 1.559H34.675a1.5 1.5 0 0 0-1.422 1.023 8.103 8.103 0 0 1-7.688 5.535 8.112 8.112 0 0 1-5.319-1.989h3.732a1.5 1.5 0 0 0 1.299-.75z"/></svg>